<?xml version="1.0" encoding="utf-8"?>
<svg version="1.1" width="341px" height="426px" style="shape-rendering:geometricPrecision; text-rendering:geometricPrecision; image-rendering:optimizeQuality; fill-rule:evenodd; clip-rule:evenodd" xmlns="http://www.w3.org/2000/svg">
  <g>
    <path style="opacity: 1; fill: rgb(141, 33, 33);" d="M 189.5,56.5 C 221.185,54.9978 249.519,63.8311 274.5,83C 295.416,83.6177 310.083,93.451 318.5,112.5C 318.167,112.833 317.833,113.167 317.5,113.5C 283.631,103.958 255.464,112.625 233,139.5C 213.667,168.833 213.667,198.167 233,227.5C 243.512,241.003 257.012,250.17 273.5,255C 263.428,272.406 249.928,286.573 233,297.5C 194.756,274.198 174.923,240.031 173.5,195C 174.19,180.22 177.19,165.886 182.5,152C 182.389,150.278 181.889,150.112 181,151.5C 155.446,203.396 160.112,252.396 195,298.5C 198.682,302.015 202.182,305.682 205.5,309.5C 198.125,312.41 190.458,314.243 182.5,315C 169.343,316.161 156.343,315.328 143.5,312.5C 118.167,266.493 114.333,218.826 132,169.5C 138.538,152.079 147.871,136.413 160,122.5C 160.667,121.833 160.667,121.167 160,120.5C 117.93,163.721 101.263,215.388 110,275.5C 112.023,284.913 114.023,294.247 116,303.5C 96.1946,293.03 80.1946,278.363 68,259.5C 59.765,229.463 63.4317,200.797 79,173.5C 81.7829,169.049 84.9496,164.883 88.5,161C 79.079,167.1 71.579,175.267 66,185.5C 60.1422,196.907 55.9755,208.907 53.5,221.5C 49.4487,203.824 49.6153,186.158 54,168.5C 59.1788,152.795 68.6788,140.462 82.5,131.5C 78.5296,130.804 74.5296,130.637 70.5,131C 80.3202,116.748 93.6536,107.414 110.5,103C 107.556,102.03 104.556,101.196 101.5,100.5C 121.09,86.3579 143.09,78.8579 167.5,78C 160.564,73.3461 152.898,70.6794 144.5,70C 158.826,62.8407 173.826,58.3407 189.5,56.5 Z M 244.5,81.5 C 250.469,83.0612 256.469,84.5612 262.5,86C 260.571,88.4383 258.238,90.2717 255.5,91.5C 250.546,89.544 246.879,86.2107 244.5,81.5 Z"/>
  </g>
</svg>